# xmcd
#
# Track frame offsets: 
#        150
#        12403
#        61260
#        79986
#        93028
#        105963
#        134687
#        150748
#        164772
#        195352
#        209461
#        223005
#        271816
#        284968
#
# Disc length: 3979 seconds
#
# Revision: 1
# Processed by: cddbd v1.5.2PL0 Copyright (c) Steve Scherf et al.
# Submitted via: ExactAudioCopy v0.99pb5
#
DISCID=cc0f890e
DTITLE=Miles Davis - Solo Lo Mejor De
DYEAR=2003
DGENRE=Jazz
TTITLE0='Round Midnight
TTITLE1=So What
TTITLE2=Out Of Nowhere
TTITLE3=Baby, Won't You Make Up Your Mind
TTITLE4=Don't Sing Me The Blues
TTITLE5=No Blues
TTITLE6=Autumn Leaves
TTITLE7=Straight, No Chaser
TTITLE8=Bye Bye Blackbird
TTITLE9=I've Always Got The Blues
TTITLE10=Don't Explain To Me Baby
TTITLE11=What Is This Thing Called Love?
TTITLE12=Scrapple From The Apple
TTITLE13=Night In Tunisia
EXTD=
EXTT0=
EXTT1=
EXTT2=
EXTT3=
EXTT4=
EXTT5=
EXTT6=
EXTT7=
EXTT8=
EXTT9=
EXTT10=
EXTT11=
EXTT12=
EXTT13=
PLAYORDER=
